<svg id="visual" viewBox="0 0 960 540" width="960" height="540" xmlns="http://www.w3.org/2000/svg" xmlns:xlink="http://www.w3.org/1999/xlink" version="1.1"><rect x="0" y="0" width="960" height="540" fill="#a0e2b3"></rect><path d="M0 338L22.8 346.5C45.7 355 91.3 372 137 386.5C182.7 401 228.3 413 274 413.7C319.7 414.3 365.3 403.7 411.2 408.8C457 414 503 435 548.8 440.8C594.7 446.7 640.3 437.3 686 439.2C731.7 441 777.3 454 823 459.2C868.7 464.3 914.3 461.7 937.2 460.3L960 459L960 541L937.2 541C914.3 541 868.7 541 823 541C777.3 541 731.7 541 686 541C640.3 541 594.7 541 548.8 541C503 541 457 541 411.2 541C365.3 541 319.7 541 274 541C228.3 541 182.7 541 137 541C91.3 541 45.7 541 22.8 541L0 541Z" fill="#ffffff" stroke-linecap="round" stroke-linejoin="miter"></path></svg>